{"title":"The Rundown 2003 DVDRip Xvid BigPerm LKRG","uid":6984576,"size":993373287,"categoryP":"video","categoryS":"movies","magnet":"?xt=urn:btih:71418a375fddc88a9728e455fabb2c15fe90f3b3&amp;dn=The+Rundown+2003+DVDRip+Xvid+BigPerm+LKRG&amp;tr=udp%3A%2F%2Ftracker.openbittorrent.com%3A80&amp;tr=udp%3A%2F%2Fopen.demonii.com%3A1337&amp;tr=udp%3A%2F%2Ftracker.coppersurfer.tk%3A6969&amp;tr=udp%3A%2F%2Fexodus.desync.com%3A6969","seeders":3,"leechers":0,"uploader":".BONE.","files":2,"time":1327522458,"description":"PLOT\n\nA tough aspiring chef is hired to bring home a mobster's son from the Amazon but becomes\ninvolved in the fight against an oppressive town operator and the search for a legendary treasure.\n\nEncoded By .......: BigPerm\nRuntime ..........: 1h 42mn\nFile Size ........: 947 MB\nResolution .......: 720 x 304 &lt;a href=&quot;\nhttp://www.imdb.com/title/tt0327850/&quot; rel=&quot;nofollow&quot; target=&quot;_NEW&quot;&gt;\nhttp://www.imdb.com/title/tt0327850/&lt;/a&gt;\nGenre ............: Action,Adventure,Comedy\nLanguage .........: English\nSubtitles ........: None\nVideo\nID : 0\nFormat : MPEG-4 Visual\nFormat profile : Advanced Simple@L5\nFormat settings, BVOP : Yes\nFormat settings, QPel : No\nFormat settings, GMC : No warppoints\nFormat settings, Matrix : Default (H.263)\nMuxing mode : Packed bitstream\nCodec ID : XVID\nCodec ID/Hint : XviD\nDuration : 1h 42mn\nBit rate : 832 Kbps\nWidth : 720 pixels\nHeight : 304 pixels\nDisplay aspect ratio : 2.35:1\nFrame rate : 23.976 fps\nColor space : YUV\nChroma subsampling : 4:2:0\nBit depth : 8 bits\nScan type : Progressive\nCompression mode : Lossy\nBits/(Pixel*Frame) : 0.159\nStream size : 611 MiB (65%)\nWriting library : XviD 64\nAudio\nID : 1\nFormat : AC-3\nFormat/Info : Audio Coding 3\nMode extension : CM (complete main)\nCodec ID : 2000\nDuration : 1h 42mn\nBit rate mode : Constant\nBit rate : 448 Kbps\nChannel(s) : 6 channels\nChannel positions : Front: L C R, Side: L R, LFE\nSampling rate : 48.0 KHz\nBit depth : 16 bits\nCompression mode : Lossy\nStream size : 329 MiB (35%)\nAlignment : Split accross interleaves\nInterleave, duration : 42 ms (1.00 video frame)\nInterleave, preload duration : 500 ms\n &lt;a href=&quot;\nhttp://www.shotpix.com/images/08835026052193269332.png&quot; rel=&quot;nofollow&quot; target=&quot;_NEW&quot;&gt;\nhttp://www.shotpix.com/images/08835026052193269332.png&lt;/a&gt; &lt;a href=&quot;\nhttp://www.shotpix.com/images/66765900517472928122.png&quot; rel=&quot;nofollow&quot; target=&quot;_NEW&quot;&gt;\nhttp://www.shotpix.com/images/66765900517472928122.png&lt;/a&gt; &lt;a href=&quot;\nhttp://www.shotpix.com/images/36825240749247796443.png&quot; rel=&quot;nofollow&quot; target=&quot;_NEW&quot;&gt;\nhttp://www.shotpix.com/images/36825240749247796443.png&lt;/a&gt; &lt;a href=&quot;\nhttp://www.shotpix.com/images/27435344036168982177.png&quot; rel=&quot;nofollow&quot; target=&quot;_NEW&quot;&gt;\nhttp://www.shotpix.com/images/27435344036168982177.png&lt;/a&gt; &lt;a href=&quot;\nhttp://www.shotpix.com/images/20521429317272394255.png&quot; rel=&quot;nofollow&quot; target=&quot;_NEW&quot;&gt;\nhttp://www.shotpix.com/images/20521429317272394255.png&lt;/a&gt;","torrent":{"xt":"urn:btih:71418a375fddc88a9728e455fabb2c15fe90f3b3","amp;dn":"The+Rundown+2003+DVDRip+Xvid+BigPerm+LKRG","amp;tr":["udp%3A%2F%2Ftracker.openbittorrent.com%3A80","udp%3A%2F%2Fopen.demonii.com%3A1337","udp%3A%2F%2Ftracker.coppersurfer.tk%3A6969","udp%3A%2F%2Fexodus.desync.com%3A6969"],"infoHash":"71418a375fddc88a9728e455fabb2c15fe90f3b3","infoHashBuffer":{"type":"Buffer","data":[113,65,138,55,95,221,200,138,151,40,228,85,250,187,44,21,254,144,243,179]},"announce":[],"urlList":[]}}